# Blender v2.92.0 OBJ File: 'rc boat.blend'
# www.blender.org
mtllib sailboat.mtl
o sailboat_Cube.003
v 0.105299 -0.084328 1.353124
v 0.128406 -0.262396 0.929550
v 0.034059 -0.298652 0.442742
v 0.034025 -0.287083 -0.017849
v 0.017921 -0.170296 -0.967212
v 0.018678 -0.136351 -1.116506
v 0.069786 -0.030706 -1.473881
v 0.089326 0.150738 -1.376181
v 0.114449 0.150738 -1.133325
v 0.021140 0.150738 0.046169
v 0.021788 0.150738 0.097488
v 0.200984 0.150738 0.468962
v 0.128406 0.150738 0.907219
v 0.049435 0.150738 1.334310
v 0.184409 0.018211 1.346715
v 0.200144 -0.202625 0.893262
v 0.287107 -0.167365 0.491489
v 0.345867 -0.166134 0.008452
v 0.283556 -0.096179 -0.896470
v 0.273561 -0.012251 -1.214277
v 0.153529 -0.030706 -1.423635
v 0.187027 0.150738 -1.370598
v 0.273561 0.150738 -1.200320
v 0.360096 0.150738 -0.876513
v 0.441048 0.150738 -0.025123
v 0.374053 0.150738 0.471754
v 0.298684 0.150738 0.870930
v 0.100159 0.150738 1.337101
v 0.298684 -0.010597 0.882096
v 0.374053 -0.016180 0.477337
v 0.441048 -0.013389 -0.012561
v 0.360096 -0.016953 -0.883491
v 0.154592 0.252386 0.275091
v 0.166014 0.289477 0.468962
v 0.170881 0.241325 0.791422
v 0.171141 -0.273561 0.480128
v 0.171099 -0.267978 -0.008374
v 0.022216 -0.615328 0.161373
v 0.022182 -0.613065 -0.149159
v 0.139411 -0.159112 -0.929550
v 0.114449 -0.111658 -1.147283
v 0.008565 -0.422373 -1.112504
v 0.009322 -0.415351 -1.196732
v 0.000000 0.184235 1.722320
v 0.000000 -0.128406 1.365015
v 0.000000 -0.262396 0.898844
v 0.000000 -0.273561 0.496877
v 0.000000 -0.267978 -0.008374
v 0.000000 -0.159112 -0.886183
v 0.000000 -0.111658 -1.150074
v 0.000000 -0.030706 -1.485047
v 0.000000 0.150738 -1.390138
v 0.000000 0.150738 -1.136117
v 0.000000 0.150738 0.046000
v 0.000000 0.150738 0.148257
v 0.000000 0.150738 0.485711
v 0.000000 0.150738 0.982824
v 0.000000 0.150738 1.345475
v -0.105299 -0.084328 1.353124
v -0.128406 -0.262396 0.929550
v -0.034059 -0.298652 0.442742
v -0.034025 -0.287083 -0.017849
v -0.017921 -0.170296 -0.967212
v -0.018678 -0.136351 -1.116506
v -0.069786 -0.030706 -1.473881
v -0.089326 0.150738 -1.376181
v -0.114449 0.150738 -1.133325
v -0.021140 0.150738 0.046169
v -0.021788 0.150738 0.097488
v -0.200984 0.150738 0.468962
v -0.128406 0.150738 0.907219
v -0.049435 0.150738 1.334310
v -0.184409 0.018211 1.346715
v -0.200144 -0.202625 0.893262
v -0.287107 -0.167365 0.491489
v -0.345867 -0.166134 0.008452
v -0.283556 -0.096179 -0.896470
v -0.273561 -0.012251 -1.214277
v -0.153529 -0.030706 -1.423635
v -0.187027 0.150738 -1.370598
v -0.273561 0.150738 -1.200320
v -0.360096 0.150738 -0.876513
v -0.441048 0.150738 -0.025123
v -0.374053 0.150738 0.471754
v -0.298684 0.150738 0.870930
v -0.100159 0.150738 1.337101
v -0.298684 -0.010597 0.882096
v -0.374053 -0.016180 0.477337
v -0.441048 -0.013389 -0.012561
v -0.360096 -0.016953 -0.883491
v 0.000000 0.289477 0.239799
v 0.000000 0.289477 0.485711
v 0.000000 0.270186 0.794872
v -0.154592 0.252386 0.275091
v -0.166014 0.289477 0.468962
v -0.170881 0.241325 0.791422
v 0.000000 -0.315049 -0.064921
v 0.000000 -0.326515 0.450418
v -0.171141 -0.273561 0.480128
v -0.171099 -0.267978 -0.008374
v -0.022216 -0.615328 0.161373
v -0.022182 -0.613065 -0.149159
v 0.000000 -0.680576 -0.285262
v 0.000000 -0.682737 0.169048
v 0.000000 -0.137072 -1.144891
v 0.000000 -0.187492 -0.944466
v -0.139411 -0.159112 -0.929550
v -0.114449 -0.111658 -1.147283
v -0.008565 -0.422373 -1.112504
v -0.009322 -0.415351 -1.196732
v 0.000000 -0.432900 -1.226239
v 0.000000 -0.440690 -1.104341
v 0.217733 0.150738 -0.915593
v 0.220524 0.150738 0.148257
v 0.000000 0.150738 -0.923967
v 0.000000 0.150738 0.097488
v -0.217733 0.150738 -0.915593
v -0.220524 0.150738 0.148257
v 0.000000 4.340282 0.051664
v 0.000000 4.340282 0.091849
v 0.016500 4.340282 0.051795
v 0.017006 4.340282 0.091849
v -0.016500 4.340282 0.051795
v -0.017006 4.340282 0.091849
v -0.014138 1.145625 0.014533
v -0.011035 3.947470 0.018296
v 0.000000 1.145625 0.014420
v 0.014138 1.145625 0.014533
v 0.000000 3.947470 0.018208
v 0.011035 3.947470 0.018296
v -0.020857 0.323574 -0.003710
v -0.016279 4.456997 0.001841
v 0.000000 0.323574 -0.003876
v 0.020857 0.323574 -0.003710
v 0.000000 4.456997 0.001711
v 0.016279 4.456997 0.001841
v -0.000902 0.294224 -1.355367
v -0.000704 0.472903 -1.198842
v 0.000000 0.294224 -1.355374
v 0.000902 0.294224 -1.355367
v 0.000000 0.472903 -1.198848
v 0.000704 0.472903 -1.198842
vt 0.000000 0.000000
vt 0.000000 0.000000
vt 0.000000 0.000000
vt 0.000000 0.000000
vt 0.000000 0.000000
vt 0.000000 0.000000
vt 0.000000 0.000000
vt 0.000000 0.000000
vt 0.000000 0.000000
vt 0.000000 0.000000
vt 0.000000 0.000000
vt 0.000000 0.000000
vt 0.000000 0.000000
vt 0.000000 0.000000
vt 0.000000 0.000000
vt 0.000000 0.000000
vt 0.000000 0.000000
vt 0.000000 0.000000
vt 0.000000 0.000000
vt 0.000000 0.000000
vt 0.000000 0.000000
vt 0.000000 0.000000
vt 0.000000 0.000000
vt 0.000000 0.000000
vt 0.000000 0.000000
vt 0.000000 0.000000
vt 0.000000 0.000000
vt 0.000000 0.000000
vt 0.000000 0.000000
vt 0.000000 0.000000
vt 0.000000 0.000000
vt 0.000000 0.000000
vt 0.000000 0.000000
vt 0.000000 0.000000
vt 0.000000 0.000000
vt 0.000000 0.000000
vt 0.000000 0.000000
vt 0.000000 0.000000
vt 0.000000 0.000000
vt 0.000000 0.000000
vt 0.000000 0.000000
vt 0.000000 0.000000
vt 0.000000 0.000000
vt 0.000000 0.000000
vt 0.000000 0.000000
vt 0.000000 0.000000
vt 0.000000 0.000000
vt 0.000000 0.000000
vt 0.000000 0.000000
vt 0.000000 0.000000
vt 0.000000 0.000000
vt 0.000000 0.000000
vt 0.000000 0.000000
vt 0.000000 0.000000
vt 0.000000 0.000000
vt 0.000000 0.000000
vt 0.000000 0.000000
vt 0.000000 0.000000
vt 0.000000 0.000000
vt 0.000000 0.000000
vt 0.000000 0.000000
vt 0.000000 0.000000
vt 0.000000 0.000000
vt 0.000000 0.000000
vt 0.000000 0.000000
vt 0.000000 0.000000
vt 0.000000 0.000000
vt 0.000000 0.000000
vt 0.000000 0.000000
vt 0.000000 0.000000
vt 0.000000 0.000000
vt 0.000000 0.000000
vt 0.000000 0.000000
vt 0.000000 0.000000
vt 0.000000 0.000000
vt 0.000000 0.000000
vt 0.000000 0.000000
vt 0.000000 0.000000
vt 0.000000 0.000000
vt 0.000000 0.000000
vt 0.000000 0.000000
vt 0.000000 0.000000
vt 0.000000 0.000000
vt 0.000000 0.000000
vt 0.000000 0.000000
vt 0.000000 0.000000
vt 0.000000 0.000000
vt 0.000000 0.000000
vt 0.000000 0.000000
vt 0.000000 0.000000
vt 0.000000 0.000000
vt 0.000000 0.000000
vt 0.000000 0.000000
vt 0.000000 0.000000
vt 0.000000 0.000000
vt 0.000000 0.000000
vt 0.000000 0.000000
vt 0.000000 0.000000
vt 0.000000 0.000000
vt 0.000000 0.000000
vt 0.000000 0.000000
vt 0.000000 0.000000
vt 0.000000 0.000000
vt 0.000000 0.000000
vt 0.000000 0.000000
vt 0.000000 0.000000
vt 0.000000 0.000000
vt 0.000000 0.000000
vt 0.000000 0.000000
vt 0.000000 0.000000
vt 0.000000 0.000000
vt 0.000000 0.000000
vt 0.000000 0.000000
vt 0.000000 0.000000
vt 0.000000 0.000000
vt 0.000000 0.000000
vt 0.000000 0.000000
vt 0.000000 0.000000
vt 0.000000 0.000000
vt 0.000000 0.000000
vt 0.000000 0.000000
vt 0.000000 0.000000
vt 0.000000 0.000000
vt 0.000000 0.000000
vt 0.000000 0.000000
vt 0.000000 0.000000
vt 0.000000 0.000000
vt 0.000000 0.000000
vt 0.000000 0.000000
vt 0.000000 0.000000
vt 0.000000 0.000000
vt 0.000000 0.000000
vt 0.000000 0.000000
vt 0.000000 0.000000
vt 0.000000 0.000000
vt 0.000000 0.000000
vt 0.000000 0.000000
vt 0.000000 0.000000
vt 0.000000 0.000000
vt 0.000000 0.000000
vt 0.000000 0.000000
vt 0.000000 0.000000
vn 0.0000 1.0000 -0.0000
vn 0.7360 -0.6033 0.3070
vn 0.6780 -0.4888 0.5489
vn -0.0200 0.9959 -0.0885
vn 0.1386 0.4585 -0.8778
vn 0.3629 -0.7013 0.6136
vn 0.1491 -0.9319 0.3307
vn 0.0000 0.0013 1.0000
vn 0.8263 0.5375 0.1681
vn 0.9119 0.2825 0.2977
vn 0.9828 0.0094 0.1842
vn 0.9909 0.0074 0.1346
vn 0.9956 -0.0016 -0.0936
vn 0.9667 0.0162 -0.2555
vn 0.8782 0.0076 -0.4782
vn 0.0047 0.9963 -0.0854
vn 0.2772 0.3337 -0.9010
vn 0.7210 -0.6641 -0.1980
vn 0.7993 -0.5947 -0.0867
vn 0.8582 -0.5017 0.1088
vn 0.8734 -0.4603 0.1589
vn 0.8692 -0.4320 0.2406
vn 0.0000 0.4443 -0.8959
vn 0.9504 -0.3110 -0.0018
vn 0.7960 -0.3965 0.4574
vn 0.9129 0.1725 -0.3700
vn 0.9993 -0.0364 -0.0007
vn 0.2456 0.7450 -0.6202
vn 0.9011 -0.4328 -0.0278
vn 0.8794 0.1155 -0.4618
vn 0.9994 -0.0353 0.0003
vn 0.8627 -0.2730 0.4256
vn -0.7360 -0.6033 0.3070
vn -0.6780 -0.4888 0.5489
vn 0.0200 0.9959 -0.0885
vn -0.1386 0.4585 -0.8778
vn -0.3629 -0.7013 0.6136
vn -0.1491 -0.9319 0.3307
vn 1.0000 0.0000 0.0000
vn -0.8263 0.5375 0.1681
vn -0.9119 0.2825 0.2977
vn -0.9828 0.0094 0.1842
vn -0.9909 0.0074 0.1346
vn -0.9956 -0.0016 -0.0936
vn -0.9667 0.0162 -0.2555
vn -0.8782 0.0076 -0.4782
vn -0.0047 0.9963 -0.0854
vn -0.2772 0.3337 -0.9010
vn -0.7210 -0.6641 -0.1980
vn -0.7993 -0.5947 -0.0867
vn -0.8582 -0.5017 0.1088
vn -0.8734 -0.4603 0.1589
vn -0.8692 -0.4320 0.2406
vn -0.9504 -0.3110 -0.0018
vn -0.7960 -0.3965 0.4574
vn -0.9129 0.1725 -0.3700
vn -0.9993 -0.0364 -0.0007
vn -0.2456 0.7450 -0.6202
vn -0.9011 -0.4328 -0.0278
vn -0.8794 0.1155 -0.4618
vn -0.9994 -0.0353 0.0003
vn -0.8627 -0.2730 0.4256
vn 0.9999 0.0011 -0.0126
vn -0.9999 0.0011 -0.0126
vn 0.0080 -0.0223 0.9997
vn -0.0002 -0.9998 0.0217
vn -0.0080 0.0324 0.9994
vn -0.0080 -0.0223 0.9997
vn 0.0080 0.0324 0.9994
vn -0.0060 0.6589 -0.7522
vn 0.0060 0.6589 -0.7522
vn -0.0077 0.2885 -0.9574
vn 0.0002 -0.9998 0.0217
vn 0.0077 0.2885 -0.9574
vn 0.5798 -0.8142 0.0293
vn 0.6662 -0.7414 0.0805
vn -0.0012 -0.9997 0.0262
vn 0.2277 0.7857 0.5751
vn -0.0167 -0.9927 -0.1198
vn 0.9193 0.3932 -0.0138
vn 0.0181 -0.9709 -0.2388
vn 0.4698 -0.8759 -0.1100
vn 0.4369 -0.8666 -0.2411
vn 0.3571 -0.9088 -0.2157
vn 0.1194 0.9891 -0.0865
vn 0.0911 0.9903 0.1050
vn 0.1351 0.6863 -0.7147
vn 0.9959 0.0126 0.0894
vn 0.1621 -0.9866 -0.0178
vn 0.1748 -0.8468 0.5024
vn 0.1657 -0.9604 -0.2239
vn 0.1786 -0.9686 0.1732
vn 0.1539 -0.7531 -0.6396
vn -0.5798 -0.8142 0.0293
vn -0.6662 -0.7414 0.0805
vn 0.0012 -0.9997 0.0262
vn 0.9844 0.0013 -0.1762
vn -0.2277 0.7857 0.5751
vn 0.0167 -0.9927 -0.1198
vn -0.9193 0.3932 -0.0138
vn -0.0181 -0.9709 -0.2388
vn -0.4698 -0.8759 -0.1100
vn -0.4369 -0.8666 -0.2411
vn -0.3571 -0.9088 -0.2157
vn -0.1194 0.9891 -0.0865
vn -0.0911 0.9903 0.1050
vn -0.1351 0.6863 -0.7147
vn -0.9959 0.0126 0.0894
vn -0.1621 -0.9866 -0.0178
vn -0.1748 -0.8468 0.5024
vn -0.1657 -0.9604 -0.2239
vn -0.1786 -0.9686 0.1732
vn -0.1539 -0.7531 -0.6396
vn -0.0080 -0.0317 -0.9995
vn -0.9471 0.0006 0.3210
vn 0.0080 0.0849 -0.9964
vn 0.0080 -0.0317 -0.9995
vn -0.0080 0.0849 -0.9964
vn -0.9844 0.0013 -0.1762
vn 0.9999 0.0017 -0.0166
vn 0.9471 0.0006 0.3210
vn -0.9999 0.0017 -0.0166
usemtl Base
s off
f 113/1/1 114/2/1 25/3/1 24/4/1
f 9/5/1 113/1/1 24/4/1 23/6/1
f 1/7/2 2/8/2 16/9/2 15/10/2
f 8/11/1 9/5/1 23/6/1 22/12/1
f 44/13/3 1/7/3 15/10/3
f 58/14/4 44/13/4 14/15/4
f 51/16/5 52/17/5 8/11/5 7/18/5
f 44/13/6 45/19/6 1/7/6
f 52/17/1 53/20/1 9/5/1 8/11/1
f 45/19/7 46/21/7 2/8/7 1/7/7
f 53/20/1 115/22/1 113/1/1 9/5/1
f 116/23/8 11/24/8 122/25/8 120/26/8
f 57/27/1 58/14/1 14/15/1 13/28/1
f 15/10/9 28/29/9 44/13/9
f 15/10/10 29/30/10 27/31/10 28/29/10
f 29/30/11 30/32/11 26/33/11 27/31/11
f 30/32/12 31/34/12 25/3/12 26/33/12
f 31/34/13 32/35/13 24/4/13 25/3/13
f 32/35/14 20/36/14 23/6/14 24/4/14
f 21/37/15 22/12/15 23/6/15 20/36/15
f 114/2/1 12/38/1 26/33/1 25/3/1
f 12/38/1 13/28/1 27/31/1 26/33/1
f 13/28/1 14/15/1 28/29/1 27/31/1
f 14/15/16 44/13/16 28/29/16
f 7/18/17 8/11/17 22/12/17 21/37/17
f 19/39/18 20/36/18 32/35/18
f 18/40/19 19/39/19 32/35/19 31/34/19
f 17/41/20 18/40/20 31/34/20 30/32/20
f 16/9/21 17/41/21 30/32/21 29/30/21
f 15/10/22 16/9/22 29/30/22
f 37/42/23 4/43/23 48/44/23
f 104/45/24 103/46/24 39/47/24 38/48/24
f 3/49/25 98/50/25 104/45/25 38/48/25
f 97/51/26 4/43/26 39/47/26 103/46/26
f 4/43/27 3/49/27 38/48/27 39/47/27
f 97/51/28 48/44/28 4/43/28
f 112/52/29 111/53/29 43/54/29 42/55/29
f 105/56/30 6/57/30 43/54/30 111/53/30
f 6/57/31 5/58/31 42/55/31 43/54/31
f 5/58/32 106/59/32 112/52/32 42/55/32
f 117/60/1 82/61/1 83/62/1 118/63/1
f 67/64/1 81/65/1 82/61/1 117/60/1
f 59/66/33 73/67/33 74/68/33 60/69/33
f 66/70/1 80/71/1 81/65/1 67/64/1
f 44/13/34 73/67/34 59/66/34
f 58/14/35 72/72/35 44/13/35
f 51/16/36 65/73/36 66/70/36 52/17/36
f 44/13/37 59/66/37 45/19/37
f 52/17/1 66/70/1 67/64/1 53/20/1
f 45/19/38 59/66/38 60/69/38 46/21/38
f 53/20/1 67/64/1 117/60/1 115/22/1
f 98/50/39 104/45/39 103/46/39 97/51/39
f 106/59/39 112/52/39 111/53/39 105/56/39
f 57/27/1 71/74/1 72/72/1 58/14/1
f 73/67/40 44/13/40 86/75/40
f 73/67/41 86/75/41 85/76/41 87/77/41
f 87/77/42 85/76/42 84/78/42 88/79/42
f 88/79/43 84/78/43 83/62/43 89/80/43
f 89/80/44 83/62/44 82/61/44 90/81/44
f 90/81/45 82/61/45 81/65/45 78/82/45
f 79/83/46 78/82/46 81/65/46 80/71/46
f 118/63/1 83/62/1 84/78/1 70/84/1
f 70/84/1 84/78/1 85/76/1 71/74/1
f 71/74/1 85/76/1 86/75/1 72/72/1
f 72/72/47 86/75/47 44/13/47
f 65/73/48 79/83/48 80/71/48 66/70/48
f 77/85/49 90/81/49 78/82/49
f 76/86/50 89/80/50 90/81/50 77/85/50
f 75/87/51 88/79/51 89/80/51 76/86/51
f 74/68/52 87/77/52 88/79/52 75/87/52
f 73/67/53 87/77/53 74/68/53
f 55/88/39 91/89/39 92/90/39 56/91/39
f 56/91/39 92/90/39 93/92/39 57/27/39
f 97/51/39 48/44/39 47/93/39 98/50/39
f 100/94/23 48/44/23 62/95/23
f 104/45/54 101/96/54 102/97/54 103/46/54
f 61/98/55 101/96/55 104/45/55 98/50/55
f 97/51/56 103/46/56 102/97/56 62/95/56
f 62/95/57 102/97/57 101/96/57 61/98/57
f 97/51/58 62/95/58 48/44/58
f 105/56/39 50/99/39 49/100/39 106/59/39
f 112/52/59 109/101/59 110/102/59 111/53/59
f 105/56/60 111/53/60 110/102/60 64/103/60
f 64/103/61 110/102/61 109/101/61 63/104/61
f 63/104/62 109/101/62 112/52/62 106/59/62
f 10/105/1 11/24/1 114/2/1 113/1/1
f 54/106/1 10/105/1 113/1/1 115/22/1
f 11/24/1 116/23/1 55/88/1 114/2/1
f 69/107/1 68/108/1 117/60/1 118/63/1
f 68/108/1 54/106/1 115/22/1 117/60/1
f 116/23/1 69/107/1 118/63/1 55/88/1
f 119/109/1 120/26/1 122/25/1 121/110/1
f 119/109/1 123/111/1 124/112/1 120/26/1
f 11/24/63 10/105/63 121/110/63 122/25/63
f 69/107/8 116/23/8 120/26/8 124/112/8
f 68/108/64 69/107/64 124/112/64 123/111/64
f 127/113/65 125/114/65 131/115/65 133/116/65
f 134/117/66 133/116/66 139/118/66 140/119/66
f 129/120/67 130/121/67 136/122/67 135/123/67
f 128/124/68 127/113/68 133/116/68 134/117/68
f 126/125/69 129/120/69 135/123/69 132/126/69
f 139/118/70 137/127/70 138/128/70 141/129/70
f 140/119/71 139/118/71 141/129/71 142/130/71
f 132/126/72 135/123/72 141/129/72 138/128/72
f 133/116/73 131/115/73 137/127/73 139/118/73
f 135/123/74 136/122/74 142/130/74 141/129/74
usemtl highlights
f 36/131/75 37/42/75 18/40/75 17/41/75
f 2/8/76 36/131/76 17/41/76 16/9/76
f 46/21/77 47/93/77 36/131/77 2/8/77
f 57/27/78 13/28/78 35/132/78 93/92/78
f 48/44/79 49/100/79 40/133/79 37/42/79
f 12/38/80 114/2/80 33/134/80 34/135/80
f 50/99/81 51/16/81 7/18/81 41/136/81
f 37/42/82 40/133/82 19/39/82 18/40/82
f 40/133/83 41/136/83 20/36/83 19/39/83
f 41/136/84 7/18/84 21/37/84 20/36/84
f 91/89/85 92/90/85 34/135/85 33/134/85
f 92/90/86 93/92/86 35/132/86 34/135/86
f 114/2/87 55/88/87 91/89/87 33/134/87
f 13/28/88 12/38/88 34/135/88 35/132/88
f 3/49/89 4/43/89 37/42/89 36/131/89
f 98/50/90 3/49/90 36/131/90 47/93/90
f 5/58/91 6/57/91 41/136/91 40/133/91
f 106/59/92 5/58/92 40/133/92 49/100/92
f 6/57/93 105/56/93 50/99/93 41/136/93
f 99/137/94 75/87/94 76/86/94 100/94/94
f 60/69/95 74/68/95 75/87/95 99/137/95
f 46/21/96 60/69/96 99/137/96 47/93/96
f 121/110/97 10/105/97 128/124/97 130/121/97
f 57/27/98 93/92/98 96/138/98 71/74/98
f 48/44/99 100/94/99 107/139/99 49/100/99
f 70/84/100 95/140/100 94/141/100 118/63/100
f 50/99/101 108/142/101 65/73/101 51/16/101
f 100/94/102 76/86/102 77/85/102 107/139/102
f 107/139/103 77/85/103 78/82/103 108/142/103
f 108/142/104 78/82/104 79/83/104 65/73/104
f 91/89/105 94/141/105 95/140/105 92/90/105
f 92/90/106 95/140/106 96/138/106 93/92/106
f 118/63/107 94/141/107 91/89/107 55/88/107
f 71/74/108 96/138/108 95/140/108 70/84/108
f 61/98/109 99/137/109 100/94/109 62/95/109
f 98/50/110 47/93/110 99/137/110 61/98/110
f 63/104/111 107/139/111 108/142/111 64/103/111
f 106/59/112 49/100/112 107/139/112 63/104/112
f 64/103/113 108/142/113 50/99/113 105/56/113
f 54/106/114 68/108/114 125/114/114 127/113/114
f 125/114/115 126/125/115 132/126/115 131/115/115
f 119/109/116 121/110/116 130/121/116 129/120/116
f 10/105/117 54/106/117 127/113/117 128/124/117
f 123/111/118 119/109/118 129/120/118 126/125/118
f 68/108/119 123/111/119 126/125/119 125/114/119
f 136/122/120 134/117/120 140/119/120 142/130/120
f 130/121/121 128/124/121 134/117/121 136/122/121
f 131/115/122 132/126/122 138/128/122 137/127/122
